<?xml version="1.0" encoding="UTF-8"?>
<svg width="32px" height="32px" viewBox="0 0 32 32" version="1.1" xmlns="http://www.w3.org/2000/svg" xmlns:xlink="http://www.w3.org/1999/xlink">
    <title>Public/ic_back</title>
    <g id="Public/ic_back" stroke="none" stroke-width="1" fill="none" fill-rule="evenodd">
        <g id="分组" transform="translate(8.000000, 9.000000)" fill="#000000">
            <path d="M3.615,8.799 L7.95206188,13.0343146 C8.26131546,13.33632 8.27162391,13.8197129 7.98298723,14.1338108 L7.95206188,14.1656854 C7.64280829,14.4676909 7.14781402,14.4777577 6.82617772,14.195886 L6.79353812,14.1656854 L1.298,8.799 L3.615,8.799 Z M7.95206188,0.234314575 C8.26131546,0.536320027 8.27162391,1.01971287 7.98298723,1.33381082 L7.95206188,1.36568542 L1.978,7.199 L1.70006834e-07,7.19948299 C0.00012572572,7.00856669 0.0697965912,6.81768592 0.209012767,6.66618918 L0.239938125,6.63431458 L6.79353812,0.234314575 C7.11345562,-0.0781048584 7.63214438,-0.0781048584 7.95206188,0.234314575 Z" id="形状结合" fill-rule="nonzero"></path>
            <rect id="矩形" x="0" y="6.4" width="16.384" height="1.6" rx="0.8"></rect>
        </g>
    </g>
</svg>