<?xml version="1.0" encoding="UTF-8"?>
<svg width="24px" height="24px" viewBox="0 0 24 24" version="1.1" xmlns="http://www.w3.org/2000/svg" xmlns:xlink="http://www.w3.org/1999/xlink">
    <title>Public/ic_delet</title>
    <g id="Public/ic_delet" stroke="none" stroke-width="1" fill="none" fill-rule="evenodd">
        <g id="Public/ic_public_list_deleted" transform="translate(1.000000, 1.000000)">
            <circle id="colorError" fill="#E84026" cx="11" cy="11" r="11"></circle>
            <path d="M7.81801948,15.2426407 C7.52512627,15.5355339 7.05025253,15.5355339 6.75735931,15.2426407 C6.46446609,14.9497475 6.46446609,14.4748737 6.75735931,14.1819805 L9.94004694,10.9992929 L6.75735931,7.81801948 C6.46446609,7.52512627 6.46446609,7.05025253 6.75735931,6.75735931 C7.05025253,6.46446609 7.52512627,6.46446609 7.81801948,6.75735931 L11.0007071,9.93863272 L14.1819805,6.75735931 C14.4748737,6.46446609 14.9497475,6.46446609 15.2426407,6.75735931 C15.5355339,7.05025253 15.5355339,7.52512627 15.2426407,7.81801948 L7.81801948,15.2426407 Z M12.767767,11.7071068 L15.2426407,14.1819805 C15.5355339,14.4748737 15.5355339,14.9497475 15.2426407,15.2426407 C14.9497475,15.5355339 14.4748737,15.5355339 14.1819805,15.2426407 L11.7071068,12.767767 L12.767767,11.7071068 Z" id="形状" fill="#FFFFFF"></path>
        </g>
    </g>
</svg>