<?xml version="1.0" encoding="UTF-8"?>
<svg width="36px" height="36px" viewBox="0 0 36 36" version="1.1" xmlns="http://www.w3.org/2000/svg" xmlns:xlink="http://www.w3.org/1999/xlink">
    <title>ic_gallery_list_damage</title>
    <g id="ic_gallery_list_damage" stroke="none" stroke-width="1" fill="none" fill-rule="evenodd">
        <g transform="translate(3.000000, 3.000000)" fill="#000000" fill-rule="nonzero" id="形状结合">
            <path d="M12.838654,-0.00104591538 C12.588242,0.705150583 12.511988,1.47770058 12.64337,2.24964858 L6,2.25 C3.96403503,2.25 2.30702561,3.87250155 2.25144067,5.89503568 L2.25,24 C2.25,24.2176916 2.26854932,24.4310509 2.30415361,24.6385833 C2.98932361,23.9029979 3.68886828,23.1776881 4.40341091,22.4611528 C5.7272981,21.1335737 7.09193687,19.8468789 8.49730187,18.6010897 C9.6795918,17.5530451 11.1878094,17.0948576 12.6544417,17.2151723 L13.6893575,19.7993253 C12.5041244,19.2043033 11.0343791,19.3588502 9.98982779,20.2847958 C8.61897246,21.4999938 7.28790985,22.7550302 5.99661492,24.0499262 C5.11855528,24.9304345 4.26388985,25.8243524 3.43260837,26.7316837 C4.08091047,27.3419773 4.94372231,27.7224146 5.89503568,27.7485593 L12.7785468,27.7496662 C12.7367152,27.99703 12.7155494,28.2480079 12.7155494,28.5000046 C12.7155494,29.0259079 12.8057637,29.5307405 12.9715609,30 L6,30 C4.56971471,30 3.25631826,29.4995394 2.22537047,28.6641781 L1.97321911,28.4486598 L1.67513871,28.1592616 L1.4054909,27.8592982 L1.16572547,27.5546766 C1.02597268,27.3647824 0.896944282,27.1662193 0.77977887,26.9600344 L0.718857379,26.8501655 C0.260397837,26.002595 -5.32907052e-15,25.0317071 -5.32907052e-15,24 L-5.32907052e-15,6 C-5.32907052e-15,2.6862915 2.6862915,-7.10320474e-13 6,-7.10320474e-13 L12.838654,-0.00104591538 Z M24,4.60756985e-06 C27.3137085,4.60756985e-06 30,2.68629611 30,6.00000461 L30,24.0000046 C30,27.3137131 27.3137085,30.0000046 24,30.0000046 L17.2155494,30.0000046 C16.3871223,30.0000046 15.7155494,29.3284317 15.7155494,28.5000046 C15.7155494,28.3091755 15.7519622,28.120099 15.8228344,27.9429186 L17.7771656,23.0570906 C17.9202122,22.6994741 17.9202122,22.3005351 17.7771656,21.9429186 L15.2501684,15.6254257 C15.0910436,15.2276136 15.109631,14.7807426 15.3012427,14.3975193 L17.7221371,9.55573042 C17.9000497,9.19990516 17.9293245,8.78797806 17.8035213,8.41056837 L15.6581139,1.97434626 C15.3961422,1.18843128 15.8208822,0.338951319 16.6067972,0.0769796605 C16.7597469,0.025996426 16.9199157,4.60756985e-06 17.0811388,4.60756985e-06 L24,4.60756985e-06 Z M24,2.25000461 L18.1215,2.25000461 L19.9380587,7.6990559 C20.2211159,8.54822768 20.1901403,9.46729724 19.8568688,10.291111 L19.7345983,10.561961 L17.4645,15.1020046 L19.8662381,21.1072896 C20.1841195,21.901993 20.2194397,22.7783209 19.9721986,23.5911631 L19.8662381,23.8927196 L18.3225,27.7500046 L24,27.7500046 C25.9882251,27.7500046 27.615058,26.2027007 27.7420235,24.2465681 L27.75,24.0000046 L27.75,6.00000461 C27.75,4.01177951 26.2026961,2.3849466 24.2465635,2.25798113 L24,2.25000461 Z M9.375,7.875 C10.8247475,7.875 12,9.05025253 12,10.5 C12,11.9497475 10.8247475,13.125 9.375,13.125 C7.92525253,13.125 6.75,11.9497475 6.75,10.5 C6.75,9.05025253 7.92525253,7.875 9.375,7.875 Z"></path>
        </g>
    </g>
</svg>