<?xml version="1.0" encoding="UTF-8"?>
<svg width="24px" height="24px" viewBox="0 0 24 24" version="1.1" xmlns="http://www.w3.org/2000/svg" xmlns:xlink="http://www.w3.org/1999/xlink">
    <title>Public/ic_最后一页</title>
    <defs>
        <path d="M1.37120167,0.141846804 L1.39524756,0.164542292 L5.10755817,3.87685289 C5.6094429,4.37873763 5.61989883,5.18595707 5.13892596,5.70056409 L5.10755817,5.73300819 L1.39524756,9.4453188 C1.2985928,9.54197356 1.17551447,9.59610022 1.04926531,9.6076988 L1.01477257,9.60980763 L0.980227427,9.60980763 C0.842081786,9.60558996 0.705193994,9.55076035 0.599752436,9.4453188 C0.387927876,9.23349424 0.380362713,8.89475916 0.577056947,8.67386956 L0.599752436,8.64982367 L4.04689799,5.20267811 C4.25872255,4.99085355 4.26628772,4.65211847 4.06959348,4.43122887 L4.04689799,4.40718298 L0.599752436,0.960037421 C0.380082521,0.740367507 0.380082521,0.384212206 0.599752436,0.164542292 C0.705664716,0.0586300122 0.843304625,0.00378258143 0.982077665,0 L1.01677683,0.00011820567 C1.14396381,0.00445241356 1.26996061,0.0516952795 1.37120167,0.141846804 Z" id="path-1"></path>
    </defs>
    <g id="Public/ic_最后一页" stroke="none" stroke-width="1" fill="none" fill-rule="evenodd">
        <g id="Page-indicator/ic/arrow/24px/no-BG/Normal备份-2" transform="translate(12.000000, 12.000000) scale(-1, 1) translate(-12.000000, -12.000000) ">
            <g id="ic/arrow/24px/Normal">
                <g id="ic/arrow/32px/left_Normal">
                    <circle id="BG_selected" cx="12.0000003" cy="12.0000003" r="12.0000003"></circle>
                    <g id="ic/item/left" transform="translate(10.000000, 6.000000)">
                        <g id="ic/left/ic_left" transform="translate(3.750000, 5.750000) scale(-1, 1) rotate(-90.000000) translate(-3.750000, -5.750000) translate(-1.750000, 2.250000)">
                            <g id="ic_left" transform="translate(5.054877, 3.193019) rotate(90.000000) translate(-5.054877, -3.193019) translate(2.054877, -1.806981)">
                                <mask id="mask-2" fill="white">
                                    <use xlink:href="#path-1"></use>
                                </mask>
                                <use id="路径" fill="#000000" fill-rule="nonzero" xlink:href="#path-1"></use>
                            </g>
                        </g>
                    </g>
                </g>
            </g>
            <path d="M9.435,7.19512292 C9.7158368,7.19512292 9.94881736,7.4000198 9.9926051,7.66847698 L10,7.76012292 L10,16.2399305 C10,16.5519714 9.74704088,16.8049305 9.435,16.8049305 C9.1541632,16.8049305 8.92118264,16.6000337 8.8773949,16.3315765 L8.87,16.2399305 L8.87,7.76012292 C8.87,7.44808203 9.12295912,7.19512292 9.435,7.19512292 Z" id="路径-5" fill="#000000" fill-rule="nonzero" transform="translate(9.435000, 12.000027) scale(-1, 1) translate(-9.435000, -12.000027) "></path>
        </g>
    </g>
</svg>