<?xml version="1.0" encoding="UTF-8"?>
<svg width="22px" height="16px" viewBox="0 0 22 16" version="1.1" xmlns="http://www.w3.org/2000/svg" xmlns:xlink="http://www.w3.org/1999/xlink">
    <title>Public/ic_份数悬停－</title>
    <defs>
        <path d="M1.40516806,0.489096883 L1.4252063,0.50800979 L4.51879847,3.60160196 C4.93703575,4.01983924 4.94574903,4.69252211 4.5449383,5.12136129 L4.51879847,5.14839804 L1.4252063,8.24199021 C1.34466067,8.32253584 1.24209539,8.3676414 1.13688776,8.37730688 L1.10814381,8.37906424 L1.07935619,8.37906424 C0.964234822,8.37554952 0.850161662,8.32985818 0.762293696,8.24199021 C0.58577323,8.06546974 0.579468927,7.78319051 0.743380789,7.59911585 L0.762293696,7.5790776 L3.63491499,4.7064563 C3.81143546,4.52993584 3.81773976,4.2476566 3.6538279,4.06358194 L3.63491499,4.0435437 L0.762293696,1.1709224 C0.579235435,0.987864136 0.579235435,0.691068052 0.762293696,0.50800979 C0.85055393,0.419749557 0.965253854,0.374043365 1.08089805,0.370891214 L1.10981402,0.370989718 C1.21580317,0.374601558 1.32080051,0.413970613 1.40516806,0.489096883 Z" id="path-1"></path>
    </defs>
    <g id="Public/ic_份数悬停－" stroke="none" stroke-width="1" fill="none" fill-rule="evenodd">
        <g id="Spinner/Bottons/Enabled备份">
            <path d="M21.5008766,0.499123413 L0.499123413,0.499123413 L0.499123413,10 C0.499123413,11.5190251 1.11483,12.8942443 2.11029286,13.8897071 C3.10575573,14.88517 4.48097488,15.5008766 6,15.5008766 L16,15.5008766 C17.5190251,15.5008766 18.8942443,14.88517 19.8897071,13.8897071 C20.88517,12.8942443 21.5008766,11.5190251 21.5008766,10 L21.5008766,0.499123413 Z" id="矩形备份-3" stroke="#000000" stroke-width="0.998246825" fill-opacity="0.2" fill="#000000" opacity="0.200000003"></path>
            <g id="ic/16x16/Light/Public_arrow/right_expend_grey" transform="translate(6.000000, 3.000000)">
                <g id="Public/ic_previous" transform="translate(5.125000, 5.000000) rotate(-90.000000) translate(-5.125000, -5.000000) translate(2.625000, 0.500000)">
                    <mask id="mask-2" fill="white">
                        <use xlink:href="#path-1"></use>
                    </mask>
                    <g id="路径" fill-rule="nonzero" transform="translate(2.732075, 4.374978) scale(-1, 1) translate(-2.732075, -4.374978) "></g>
                    <path d="M-0.311865389,2.18735355 L4.68735355,2.18735355 C5.03253152,2.18735355 5.31235355,2.46717558 5.31235355,2.81235355 C5.31235355,2.95427324 5.26405308,3.0919673 5.17539656,3.20278796 L2.67578709,6.32729979 C2.46015612,6.5968385 2.06684839,6.64053936 1.79730968,6.4249084 C1.76126924,6.39607604 1.72853343,6.36334023 1.69970108,6.32729979 L-0.799908395,3.20278796 C-1.01553936,2.93324925 -0.971838503,2.53994151 -0.702299794,2.32431055 C-0.591479139,2.23565402 -0.453785074,2.18735355 -0.311865389,2.18735355 Z" id="矩形备份-2" fill="#000000" transform="translate(2.187733, 4.374621) rotate(-270.000000) translate(-2.187733, -4.374621) "></path>
                </g>
            </g>
        </g>
    </g>
</svg>