<?xml version="1.0" encoding="UTF-8"?>
<svg width="22px" height="16px" viewBox="0 0 22 16" version="1.1" xmlns="http://www.w3.org/2000/svg" xmlns:xlink="http://www.w3.org/1999/xlink">
    <title>Public/ic_份数－置灰</title>
    <g id="Public/ic_份数－置灰" stroke="none" stroke-width="1" fill="none" fill-rule="evenodd">
        <path d="M21.5008766,0.499123413 L21.5008766,10 C21.5008766,11.5190251 20.88517,12.8942443 19.8897071,13.8897071 C18.8942443,14.88517 17.5190251,15.5008766 16,15.5008766 L16,15.5008766 L6,15.5008766 C4.48097488,15.5008766 3.10575573,14.88517 2.11029286,13.8897071 C1.11483,12.8942443 0.499123413,11.5190251 0.499123413,10 L0.499123413,10 L0.499123413,0.499123413 L21.5008766,0.499123413 Z" id="矩形备份-3" stroke="#000000" stroke-width="0.998246825" fill="#FFFFFF" opacity="0.200000003"></path>
        <g id="Public/ic_previous" transform="translate(11.125000, 8.000000) rotate(-90.000000) translate(-11.125000, -8.000000) translate(8.625000, 4.500000)" fill="#000000" fill-opacity="0.4">
            <path d="M-0.311865389,1.18735355 L4.68735355,1.18735355 C5.03253152,1.18735355 5.31235355,1.46717558 5.31235355,1.81235355 C5.31235355,1.95427324 5.26405308,2.0919673 5.17539656,2.20278796 L2.67578709,5.32729979 C2.46015612,5.5968385 2.06684839,5.64053936 1.79730968,5.4249084 C1.76126924,5.39607604 1.72853343,5.36334023 1.69970108,5.32729979 L-0.799908395,2.20278796 C-1.01553936,1.93324925 -0.971838503,1.53994151 -0.702299794,1.32431055 C-0.591479139,1.23565402 -0.453785074,1.18735355 -0.311865389,1.18735355 Z" id="矩形备份-2" transform="translate(2.187733, 3.374621) rotate(-270.000000) translate(-2.187733, -3.374621) "></path>
        </g>
    </g>
</svg>