<?xml version="1.0" encoding="UTF-8"?>
<svg width="24px" height="24px" viewBox="0 0 24 24" version="1.1" xmlns="http://www.w3.org/2000/svg" xmlns:xlink="http://www.w3.org/1999/xlink">
    <title>Public/ic_下一页</title>
    <defs>
        <path d="M0.936201672,0.141846804 L0.960247564,0.164542292 L4.67255817,3.87685289 C5.1744429,4.37873763 5.18489883,5.18595707 4.70392596,5.70056409 L4.67255817,5.73300819 L0.960247564,9.4453188 C0.863592802,9.54197356 0.740514469,9.59610022 0.614265308,9.6076988 L0.579772573,9.60980763 L0.545227427,9.60980763 C0.407081786,9.60558996 0.270193994,9.55076035 0.164752436,9.4453188 C-0.0470721245,9.23349424 -0.0546372873,8.89475916 0.142056947,8.67386956 L0.164752436,8.64982367 L3.61189799,5.20267811 C3.82372255,4.99085355 3.83128772,4.65211847 3.63459348,4.43122887 L3.61189799,4.40718298 L0.164752436,0.960037421 C-0.0549174785,0.740367507 -0.0549174785,0.384212206 0.164752436,0.164542292 C0.270664716,0.0586300122 0.408304625,0.00378258143 0.547077665,0 L0.581776826,0.00011820567 C0.708963806,0.00445241356 0.834960606,0.0516952795 0.936201672,0.141846804 Z" id="path-1"></path>
    </defs>
    <g id="Public/ic_下一页" stroke="none" stroke-width="1" fill="none" fill-rule="evenodd">
        <g id="Page-indicator/ic/arrow/24px/no-BG/Normal备份" transform="translate(12.000000, 12.000000) scale(-1, 1) translate(-12.000000, -12.000000) ">
            <g id="ic/arrow/24px/Normal">
                <g id="ic/arrow/32px/left_Normal">
                    <circle id="BG_selected" cx="12.0000003" cy="12.0000003" r="12.0000003"></circle>
                    <g id="ic/item/left" transform="translate(7.000000, 6.000000)">
                        <g id="ic/left/ic_left" transform="translate(3.750000, 5.750000) scale(-1, 1) rotate(-90.000000) translate(-3.750000, -5.750000) translate(-1.750000, 2.250000)">
                            <g id="ic_left" transform="translate(5.054877, 3.193019) rotate(90.000000) translate(-5.054877, -3.193019) translate(2.054877, -1.806981)">
                                <mask id="mask-2" fill="white">
                                    <use xlink:href="#path-1"></use>
                                </mask>
                                <use id="路径" fill="#000000" fill-rule="nonzero" xlink:href="#path-1"></use>
                            </g>
                        </g>
                    </g>
                </g>
            </g>
        </g>
    </g>
</svg>