<?xml version="1.0" encoding="UTF-8"?>
<svg width="96px" height="96px" viewBox="0 0 96 96" version="1.1" xmlns="http://www.w3.org/2000/svg" xmlns:xlink="http://www.w3.org/1999/xlink">
    <title>插画_无打印机</title>
    <g id="插画_无打印机" stroke="none" stroke-width="1" fill="none" fill-rule="evenodd">
        <g id="EmptyPage/05-SearchNoResult" transform="translate(4.000000, 11.000000)" fill="#A1A7B3">
            <g id="编组" transform="translate(0.354286, 0.974286)">
                <path d="M53.5056562,65.2378712 C54.7516099,65.252481 58.2657719,65.7182062 59.8140386,60.6559805 C64.9813354,61.7664329 68.2457143,63.3998263 68.2457143,65.2209397 C68.2457143,68.5660098 57.2319191,71.2777249 43.6457143,71.2777249 C30.0595094,71.2777249 19.0457143,68.5660098 19.0457143,65.2209397 L19.0467143,65.2369941 Z" id="shadow" opacity="0.15"></path>
                <g id="名单">
                    <path d="M67.3474272,0.381637835 C71.3400808,0.381637835 74.1509987,3.82472806 74.1509987,7.65797502 C74.1509987,7.7381713 74.1496654,7.81804989 74.1470203,7.897589 L74.1509987,7.89730977 L74.1509987,15.0773521 L60.5438558,15.0773521 L60.5438558,7.89730977 C60.5451891,7.81804989 60.5438558,7.7381713 60.5438558,7.65797502 C60.5438558,3.82472806 63.3547737,0.381637835 67.3474272,0.381637835 Z" id="形状结合" opacity="0.600000024"></path>
                    <path d="M67.4489106,0.502967568 C64.7557466,0.502967568 62.9911717,1.91198455 62.099266,3.14762342 C60.9716129,4.70986478 60.580947,6.15132712 60.5624014,7.47566489 C60.5541589,8.06425945 60.5514114,8.64819854 60.5541589,9.22748215 L60.5624014,10.092916 L60.5628877,29.1804709 C53.9446402,30.6105681 48.9857143,36.4984888 48.9857143,43.5446289 C48.9857143,50.5248905 53.852346,56.3684893 60.3776922,57.8675081 C59.4143687,65.8740721 54.9454921,65.2547545 53.5056562,65.2378712 L15.9124272,65.2375383 L15.9121415,65.2199676 L6.2724721,65.2209397 C5.47989397,65.2209397 2.95407824,63.4191214 1.51383992,60.5640872 C0.553681043,58.6607311 0.0924971225,55.8362195 0.13028816,52.0905524 L15.9121415,52.0899676 L15.9124272,8.42095651 C15.9124272,4.40869752 17.819567,1.7993783 21.6338467,0.592998848 L21.9310144,0.502967568 L67.4489106,0.502967568 Z" id="形状结合" opacity="0.300000012"></path>
                    <path d="M0.13028816,52.0905524 L45.8293191,52.0905524 C45.5277728,56.6547722 46.1107546,59.8930212 47.5782644,61.8052993 C49.0457743,63.7175774 51.2186157,64.8561242 54.0967885,65.2209397 C22.7422963,65.2209397 6.80085751,65.2209397 6.2724721,65.2209397 C5.47989397,65.2209397 2.95407824,63.4191214 1.51383992,60.5640872 C0.553681043,58.6607311 0.0924971225,55.8362195 0.13028816,52.0905524 Z" id="矩形" opacity="0.400000006"></path>
                </g>
                <g id="放大镜" transform="translate(48.985714, 28.847143)">
                    <path d="M25.4835861,24.6750866 L28.3378792,27.5284577 C29.0944326,27.2221177 29.9936748,27.3756918 30.607163,27.98918 L38.0001297,35.3821467 C38.8184733,36.2004904 38.8184733,37.5272876 38.0001297,38.3456312 L37.7979384,38.5478225 C36.9795948,39.3661662 35.6527975,39.3661662 34.8344539,38.5478225 L27.4414872,31.1548558 C26.827999,30.5413676 26.6744249,29.6421255 26.9807648,28.885572 L24.0921382,25.9953712 C24.5841618,25.5857713 25.0490117,25.1446425 25.4835861,24.6750866 Z" id="形状结合" opacity="0.600000024"></path>
                    <path d="M14.6957143,0 C22.8119332,0 29.3914286,6.5794954 29.3914286,14.6957143 C29.3914286,22.8119332 22.8119332,29.3914286 14.6957143,29.3914286 C6.5794954,29.3914286 0,22.8119332 0,14.6957143 C0,6.5794954 6.5794954,0 14.6957143,0 Z M14.6957143,3.26571429 C8.3830996,3.26571429 3.26571429,8.3830996 3.26571429,14.6957143 C3.26571429,21.008329 8.3830996,26.1257143 14.6957143,26.1257143 C21.008329,26.1257143 26.1257143,21.008329 26.1257143,14.6957143 C26.1257143,8.3830996 21.008329,3.26571429 14.6957143,3.26571429 Z" id="形状结合" opacity="0.5"></path>
                    <circle id="椭圆形" opacity="0.200000003" cx="14.6957143" cy="14.6957143" r="11.43"></circle>
                    <rect id="矩形" opacity="0.200000003" transform="translate(21.631211, 15.325233) rotate(-255.000000) translate(-21.631211, -15.325233) " x="18.365497" y="14.7809475" width="6.53142857" height="1.08857143" rx="0.544285714"></rect>
                    <rect id="矩形备份" opacity="0.200000003" transform="translate(19.998354, 11.515233) rotate(-255.000000) translate(-19.998354, -11.515233) " x="18.365497" y="10.9709475" width="3.26571429" height="1.08857143" rx="0.544285714"></rect>
                </g>
            </g>
            <path d="M39.5060351,27.5198707 L40.9773598,33.010929 C41.1329622,33.591645 40.7883395,34.1885489 40.2076236,34.3441513 C39.6269076,34.4997537 39.0300037,34.155131 38.8744013,33.574415 L37.4030766,28.0833567 C37.2474743,27.5026407 37.5920969,26.9057368 38.1728129,26.7501344 C38.7535288,26.5945321 39.3504328,26.9391547 39.5060351,27.5198707 Z M54.1171474,26.7501344 C54.6978633,26.9057368 55.042486,27.5026407 54.8868836,28.0833567 L53.415559,33.574415 C53.2599566,34.155131 52.6630526,34.4997537 52.0823367,34.3441513 C51.5016207,34.1885489 51.1569981,33.591645 51.3126004,33.010929 L52.7839251,27.5198707 C52.9395275,26.9391547 53.5364314,26.5945321 54.1171474,26.7501344 Z M46.4473611,26.0114286 C47.0485625,26.0114286 47.5359325,26.4987986 47.5359325,27.1 L47.5359325,32.7847619 C47.5359325,33.3859633 47.0485625,33.8733333 46.4473611,33.8733333 C45.8461597,33.8733333 45.3587896,33.3859633 45.3587896,32.7847619 L45.3587896,27.1 C45.3587896,26.4987986 45.8461597,26.0114286 46.4473611,26.0114286 Z" id="形状结合" opacity="0.300000012" transform="translate(46.144980, 30.196471) rotate(-53.000000) translate(-46.144980, -30.196471) "></path>
        </g>
    </g>
</svg>