<?xml version="1.0" encoding="UTF-8"?>
<svg width="36px" height="36px" viewBox="0 0 36 36" version="1.1" xmlns="http://www.w3.org/2000/svg" xmlns:xlink="http://www.w3.org/1999/xlink">
    <title>Public/ic_one</title>
    <g id="Public/ic_one" stroke="none" stroke-width="1" fill="none" fill-rule="evenodd">
        <g id="照片备份-4">
            <rect id="矩形备份-109" x="0" y="0" width="36" height="36"></rect>
            <g id="照片" transform="translate(4.000000, 2.000000)">
                <rect id="矩形备份-121" fill="#FFFFFF" x="27" y="7.6" width="1" height="1"></rect>
                <path d="M2.66666667,0 L19.6183832,0 L19.6183832,0 L19.6058487,5.72749742 C19.6026256,7.20025323 20.7939173,8.39677053 22.2666731,8.39999361 C22.2686184,8.39999787 22.2705637,8.4 22.272509,8.4 L28,8.4 L28,8.4 L28,29.3333333 C28,30.8060927 26.8060927,32 25.3333333,32 L2.66666667,32 C1.19390733,32 -2.6372821e-16,30.8060927 0,29.3333333 L0,2.66666667 C-6.2445021e-16,1.19390733 1.19390733,1.15871992e-15 2.66666667,0 Z" id="矩形备份-122" fill="#B4C4D0"></path>
                <g id="编组备份-4" stroke-linecap="round" stroke-linejoin="round" transform="translate(5.600000, 14.600000)" fill="#FFFFFF">
                    <path d="M0.68150889,10.1584771 L4.05699781,5.74279631 C4.24303838,5.49942542 4.59114514,5.45295 4.83451604,5.63899057 C4.87523598,5.67011821 4.91144492,5.70673966 4.9421093,5.74780959 L6.79481671,8.22920889 L6.79481671,8.22920889 L10.3465849,3.24403817 C10.5243372,2.99454952 10.8706845,2.93639577 11.1201732,3.11414812 C11.1726231,3.151517 11.2181647,3.19773459 11.2547566,3.25072953 L16.0394033,10.1801756 C16.2134601,10.4322563 16.1502092,10.7777091 15.8981285,10.9517659 C15.8054805,11.0157375 15.6955585,11.05 15.5829707,11.05 L1.12217087,11.05 C0.81583693,11.05 0.567504205,10.8016673 0.567504205,10.4953333 C0.567504205,10.3735787 0.607565736,10.2552066 0.68150889,10.1584771 Z" id="路径-8"></path>
                    <circle id="椭圆形" cx="3.14" cy="1.4" r="1.4"></circle>
                </g>
                <path d="M19.6,0 L28,8.4 L22.2666667,8.4 C20.7939073,8.4 19.6,7.20609267 19.6,5.73333333 L19.6,0 L19.6,0 Z" id="矩形备份-123" fill="#D2DDE6"></path>
            </g>
        </g>
    </g>
</svg>