<?xml version="1.0" encoding="UTF-8"?>
<svg width="24px" height="24px" viewBox="0 0 24 24" version="1.1" xmlns="http://www.w3.org/2000/svg" xmlns:xlink="http://www.w3.org/1999/xlink">
    <title>Public/ic_public_shield</title>
    <defs>
        <path d="M7.69117948,0.300557678 C8.5177131,-0.100185893 9.4822869,-0.100185893 10.3088205,0.300557678 L10.3088205,0.300557678 L16.7316154,3.41464004 C17.5073719,3.79076439 18,4.57709208 18,5.43922178 L18,5.43922178 L18,10.2494835 C18,15.5153806 14.6459225,20.1095943 9.75088617,21.7968471 C9.73798712,21.8012932 9.71616939,21.8084326 9.68543299,21.8182653 C9.23931716,21.9609794 8.75978399,21.9609112 8.3137088,21.8180701 L8.3137088,21.8180701 L8.27675693,21.8061286 L8.27675693,21.8061286 L8.25199206,21.7978602 C3.35549222,20.1116516 0,15.5166977 0,10.2494835 L0,10.2494835 L0,5.43922178 C0,4.57709208 0.492628145,3.79076439 1.26838461,3.41464004 L1.26838461,3.41464004 Z M9.65441026,1.65027884 C9.24114345,1.44990705 8.75885655,1.44990705 8.34558974,1.65027884 L8.34558974,1.65027884 L1.92279487,4.7643612 C1.66420938,4.88973598 1.5,5.15184521 1.5,5.43922178 L1.5,5.43922178 L1.5,10.2494835 C1.5,12.3058015 2.08294865,14.2452049 3.10883718,15.8949122 C3.16805226,15.5717349 3.25148905,15.3017359 3.3591187,15.0828169 C3.77029622,14.2464804 4.83866878,11.7494835 9.0017996,11.7494835 C13.1649304,11.7494835 14.2514993,14.2464804 14.6444805,15.0828169 C14.7479928,15.3031101 14.8289012,15.5751265 14.8872059,15.8988661 C15.892194,14.2873425 16.4730678,12.3966839 16.4990866,10.390403 L16.4990866,10.390403 L16.5,10.2494835 L16.5,5.43922178 C16.5,5.15184521 16.3357906,4.88973598 16.0772051,4.7643612 L16.0772051,4.7643612 Z M8.875,5.11948352 C10.5346157,5.11948352 11.88,6.46486785 11.88,8.12448352 C11.88,9.7840992 10.5346157,11.1294835 8.875,11.1294835 C7.21538433,11.1294835 5.87,9.7840992 5.87,8.12448352 C5.87,6.46486785 7.21538433,5.11948352 8.875,5.11948352 Z" id="path-1"></path>
    </defs>
    <g id="Public/ic_public_shield" stroke="none" stroke-width="1" fill="none" fill-rule="evenodd">
        <g id="编组" transform="translate(3.000000, 1.000000)">
            <mask id="mask-2" fill="white">
                <use xlink:href="#path-1"></use>
            </mask>
            <use id="形状结合" fill="#0A59F7" fill-rule="nonzero" xlink:href="#path-1"></use>
        </g>
    </g>
</svg>