<?xml version="1.0" encoding="UTF-8"?>
<svg width="24px" height="24px" viewBox="0 0 24 24" version="1.1" xmlns="http://www.w3.org/2000/svg" xmlns:xlink="http://www.w3.org/1999/xlink">
    <title>Public/ic_public_printer</title>
    <defs>
        <path d="M14,13.5 C15.6568542,13.5 17,14.8431458 17,16.5 L17,16.5 L17,18.5 C17,20.1568542 15.6568542,21.5 14,21.5 L14,21.5 L8,21.5 C6.34314575,21.5 5,20.1568542 5,18.5 L5,18.5 L5,16.5 C5,14.8431458 6.34314575,13.5 8,13.5 L8,13.5 Z M14,15 L8,15 C7.17157288,15 6.5,15.6715729 6.5,16.5 L6.5,16.5 L6.5,18.5 C6.5,19.3284271 7.17157288,20 8,20 L8,20 L14,20 C14.8284271,20 15.5,19.3284271 15.5,18.5 L15.5,18.5 L15.5,16.5 C15.5,15.6715729 14.8284271,15 14,15 L14,15 Z M14.75,0.75 C16.3813642,0.75 17.7085982,2.05213609 17.74905,3.6737563 L17.75,3.75 L17.75,5.5 C19.959139,5.5 21.75,7.290861 21.75,9.5 L21.75,15 C21.75,17.1248648 20.0931683,18.8627558 18.0009202,18.9922577 L18.0008994,17.4875667 C19.2409952,17.3639916 20.2142949,16.3342085 20.2490396,15.0699762 L20.25,15 L20.25,9.5 C20.25,8.14269002 19.1683323,7.03801707 17.8199762,7.00096045 L4.25,7 C2.89269002,7 1.78801707,8.0816677 1.75096045,9.43002379 L1.75,15 C1.75,16.2964887 2.7369003,17.3624746 4.00044359,17.4877002 L4.0000836,18.9923197 C1.90736171,18.8633117 0.25,17.1252046 0.25,15 L0.25,9.5 C0.25,7.290861 2.040861,5.5 4.25,5.5 L4.25,3.75 C4.25,2.11863582 5.55213609,0.791401812 7.1737563,0.750949964 L14.75,0.75 Z M17.5,8.5 C18.1903559,8.5 18.75,9.05964406 18.75,9.75 C18.75,10.4403559 18.1903559,11 17.5,11 C16.8096441,11 16.25,10.4403559 16.25,9.75 C16.25,9.05964406 16.8096441,8.5 17.5,8.5 Z M14.75,2.25 L7.25,2.25 C6.44040076,2.25 5.78060706,2.89139372 5.75103462,3.69376543 L5.75,3.75 L5.75,5.5 L16.25,5.5 L16.25,3.75 C16.25,2.94040076 15.6086063,2.28060706 14.8062346,2.25103462 L14.75,2.25 Z" id="path-1"></path>
    </defs>
    <g id="Public/ic_public_printer" stroke="none" stroke-width="1" fill="none" fill-rule="evenodd">
        <g transform="translate(1.000000, 1.000000)">
            <mask id="mask-2" fill="white">
                <use xlink:href="#path-1"></use>
            </mask>
            <use id="蒙版" fill="#000000" fill-rule="nonzero" xlink:href="#path-1"></use>
        </g>
    </g>
</svg>