<?xml version="1.0" encoding="UTF-8"?>
<svg width="24px" height="24px" viewBox="0 0 24 24" version="1.1" xmlns="http://www.w3.org/2000/svg" xmlns:xlink="http://www.w3.org/1999/xlink">
    <title>Public/ic_tips02</title>
    <defs>
        <path d="M11,-1.64073545e-05 L11.1815564,0.00145453455 C17.0835105,0.0971455729 21.8442179,4.83597302 21.9962538,10.7184846 L22,11.0086951 L21.9985643,11.1815573 C21.9028731,17.083502 17.1640381,21.8442018 11.281517,21.9962374 L10.9913061,21.9999836 L10.8184436,21.9985479 C4.91648945,21.9028568 0.155782063,17.1640294 0.00374622432,11.2815178 L0,10.9913073 L0.00143572836,10.8184451 C0.0971269198,4.91650039 4.83596195,0.155766533 10.710203,0.00372983816 L11,-1.64073545e-05 Z M10.994,1.499 L10.7279371,1.50380847 C5.7569636,1.64374211 1.72991179,5.60611289 1.50960807,10.5597393 L1.50138399,10.8309031 L1.5,10.9913073 C1.5,16.0940492 5.51492881,20.2660064 10.5596789,20.4903735 L10.8309016,20.4985996 L10.9913061,20.4999836 C16.0940585,20.4999836 20.2660225,16.4850612 20.4903899,11.4403214 L20.498616,11.1690993 L20.5,11.0086951 C20.5,5.90595322 16.4850712,1.73399601 11.4406109,1.50963127 L11.169404,1.50140531 L10.994,1.499 Z M11,14.5 C11.6903125,14.5 12.25,15.0596875 12.25,15.75 C12.25,16.4403125 11.6903125,17 11,17 C10.3096875,17 9.75,16.4403125 9.75,15.75 C9.75,15.0596875 10.3096875,14.5 11,14.5 Z M11,5 C11.6414582,5 12.1614628,5.5200046 12.1614628,6.16146279 C12.1614628,6.18988207 12.1604197,6.21829177 12.1583357,6.24663453 L11.6708322,12.8766827 C11.6449936,13.2280877 11.3523536,13.5 11,13.5 C10.6476464,13.5 10.3550064,13.2280877 10.3291678,12.8766827 L9.8416643,6.24663453 C9.79462525,5.60690339 10.2750971,5.05016615 10.9148283,5.00312709 C10.943171,5.00104307 10.9715807,5 11,5 Z" id="path-1"></path>
    </defs>
    <g id="Public/ic_tips02" stroke="none" stroke-width="1" fill="none" fill-rule="evenodd">
        <g id="Public/ic_public_fail" transform="translate(1.000000, 1.000000)">
            <mask id="mask-2" fill="white">
                <use xlink:href="#path-1"></use>
            </mask>
            <use id="形状结合" fill="#0A59F7" fill-rule="nonzero" xlink:href="#path-1"></use>
        </g>
    </g>
</svg>