<?xml version="1.0" encoding="UTF-8"?>
<svg width="22px" height="16px" viewBox="0 0 22 16" version="1.1" xmlns="http://www.w3.org/2000/svg" xmlns:xlink="http://www.w3.org/1999/xlink">
    <title>Public/ic_份数＋置灰</title>
    <g id="Public/ic_份数＋置灰" stroke="none" stroke-width="1" fill="none" fill-rule="evenodd">
        <path d="M16,0.499123413 C17.5190251,0.499123413 18.8942443,1.11483 19.8897071,2.11029286 C20.88517,3.10575573 21.5008766,4.48097488 21.5008766,6 L21.5008766,6 L21.5008766,15.5008766 L0.499123413,15.5008766 L0.499123413,6 C0.499123413,4.48097488 1.11483,3.10575573 2.11029286,2.11029286 C3.10575573,1.11483 4.48097488,0.499123413 6,0.499123413 L6,0.499123413 Z" id="矩形" stroke="#000000" stroke-width="0.998246825" fill="#FFFFFF" opacity="0.200000003"></path>
        <path d="M8.50002301,5.50046515 L13.499242,5.50046515 C13.8444199,5.50046515 14.124242,5.78028718 14.124242,6.12546515 C14.124242,6.26738483 14.0759415,6.4050789 13.987285,6.51589955 L11.4876755,9.64041139 C11.2720445,9.9099501 10.8787368,9.95365096 10.6091981,9.73801999 C10.5731576,9.70918764 10.5404218,9.67645183 10.5115895,9.64041139 L8.01198001,6.51589955 C7.79634904,6.24636084 7.8400499,5.85305311 8.10958861,5.63742214 C8.22040926,5.54876562 8.35810333,5.50046515 8.50002301,5.50046515 Z" id="矩形备份-2" fill-opacity="0.4" fill="#000000" transform="translate(10.999621, 7.687733) scale(1, -1) rotate(-360.000000) translate(-10.999621, -7.687733) "></path>
    </g>
</svg>