<?xml version="1.0" encoding="UTF-8"?>
<svg width="28px" height="28px" viewBox="0 0 28 28" version="1.1" xmlns="http://www.w3.org/2000/svg" xmlns:xlink="http://www.w3.org/1999/xlink">
    <title>Public/ic_public_printer02</title>
    <defs>
        <path d="M2.00664287,10.6304495 C2.69695537,10.6304495 3.25664287,11.2134573 3.25664287,11.9325328 C3.25664287,12.6516083 2.69695537,13.2346162 2.00664287,13.2346162 C1.31633037,13.2346162 0.756642866,12.6516083 0.756642866,11.9325328 C0.756642866,11.2134573 1.31633037,10.6304495 2.00664287,10.6304495 Z M2.00664287,0.734616161 C2.64998558,0.734616161 3.17151789,1.25614847 3.17151789,1.89949118 C3.17151789,1.92685745 3.17055352,1.95421522 3.16862658,1.98151356 L2.67565101,8.96533413 C2.65086022,9.31653701 2.35871963,9.58878283 2.00664287,9.58878283 C1.6545661,9.58878283 1.36242551,9.31653701 1.33763472,8.96533413 L0.844659153,1.98151356 C0.799359444,1.33976768 1.2828746,0.782807181 1.92462049,0.737507471 C1.95191883,0.735580529 1.9792766,0.734616161 2.00664287,0.734616161 Z" id="path-1"></path>
    </defs>
    <g id="Public/ic_public_printer02" stroke="none" stroke-width="1" fill="none" fill-rule="evenodd">
        <g id="1" transform="translate(3.000000, 4.000000)">
            <path d="M6.75118699,0.0195894315 L14.8239439,0.0195894315 C16.3100974,0.0195894315 17.5148629,1.22435489 17.5148629,2.71050841 L17.5148629,4.72869764 L17.5148629,4.72869764 L4.06026802,4.72869764 L4.06026802,2.71050841 C4.06026802,1.22435489 5.26503348,0.0195894315 6.75118699,0.0195894315 Z" id="矩形" fill-opacity="0.6" fill="#000000"></path>
            <path d="M18.8603224,4.72869764 C20.3464759,4.72869764 21.5512414,5.9334631 21.5512414,7.41961662 L21.5513497,9.6370643 C20.7682062,10.3634811 20.3292535,11.4400456 20.4601868,12.582642 L20.4601868,12.582642 L20.9835094,17.1457876 C20.4910758,17.7772303 19.7231196,18.1832925 18.8603224,18.1832925 L17.8508896,18.1826976 L17.8512278,14.4832789 C17.8512278,13.0542852 16.7373544,11.8854505 15.3304867,11.797654 L15.1603088,11.79236 L6.41482212,11.79236 C4.98582836,11.79236 3.81699366,12.9062333 3.7291972,14.313101 L3.72390314,14.4832789 L3.72388955,18.1826976 L2.71480853,18.1832925 C1.22865501,18.1832925 0.0238895506,16.9785271 0.0238895506,15.4923735 L0.0238895506,7.41961662 C0.0238895506,5.9334631 1.22865501,4.72869764 2.71480853,4.72869764 L18.8603224,4.72869764 Z M17.8512278,7.08325174 C17.108151,7.08325174 16.5057683,7.68563448 16.5057683,8.42871123 C16.5057683,9.17178799 17.108151,9.77417072 17.8512278,9.77417072 C18.5943045,9.77417072 19.1966873,9.17178799 19.1966873,8.42871123 C19.1966873,7.68563448 18.5943045,7.08325174 17.8512278,7.08325174 Z" id="形状结合" fill-opacity="0.901960784" fill="#000000"></path>
            <rect id="形状结合" fill-opacity="0.6" fill="#000000" x="4.73299776" y="12.8014546" width="12.1091354" height="8.07275693" rx="1.68182436"></rect>
            <g id="Public/ic_public_fail备份-2" transform="translate(21.000000, 10.000000)">
                <mask id="mask-2" fill="white">
                    <use xlink:href="#path-1"></use>
                </mask>
                <use id="形状结合" fill-opacity="0.901960784" fill="#000000" fill-rule="nonzero" xlink:href="#path-1"></use>
            </g>
        </g>
    </g>
</svg>