<?xml version="1.0" encoding="UTF-8"?>
<svg width="24px" height="24px" viewBox="0 0 24 24" version="1.1" xmlns="http://www.w3.org/2000/svg" xmlns:xlink="http://www.w3.org/1999/xlink">
    <title>Public/ic_public_detail</title>
    <defs>
        <path d="M11,8.75 C11.4142136,8.75 11.75,9.08578644 11.75,9.5 L11.75,16.25 C11.75,16.6642136 11.4142136,17 11,17 C10.5857864,17 10.25,16.6642136 10.25,16.25 L10.25,9.5 C10.25,9.08578644 10.5857864,8.75 11,8.75 Z M11,5 C11.6903559,5 12.25,5.55964406 12.25,6.25 C12.25,6.94035594 11.6903559,7.5 11,7.5 C10.3096441,7.5 9.75,6.94035594 9.75,6.25 C9.75,5.55964406 10.3096441,5 11,5 Z" id="path-1"></path>
        <path d="M11,22 C17.0751322,22 22,17.0751322 22,11 C22,4.92486775 17.0751322,0 11,0 C4.92486775,0 0,4.92486775 0,11 C0,17.0751322 4.92486775,22 11,22 Z M11,5 C10.3096875,5 9.75,5.5596875 9.75,6.25 C9.75,6.9403125 10.3096875,7.5 11,7.5 C11.6903125,7.5 12.25,6.9403125 12.25,6.25 C12.25,5.5596875 11.6903125,5 11,5 M11.75,16.25 C11.75,16.6642136 11.4142136,17 11,17 C10.5857864,17 10.25,16.6642136 10.25,16.25 L10.25,9.5 C10.25,9.08578644 10.5857864,8.75 11,8.75 C11.4142136,8.75 11.75,9.08578644 11.75,9.5 L11.75,16.25 Z" id="path-3"></path>
    </defs>
    <g id="Public/ic_public_detail" stroke="none" stroke-width="1" fill="none" fill-rule="evenodd">
        <g transform="translate(1.000000, 1.000000)">
            <mask id="mask-2" fill="white">
                <use xlink:href="#path-1"></use>
            </mask>
            <use id="形状结合" fill-opacity="0.6" fill="#000000" fill-rule="nonzero" xlink:href="#path-1"></use>
            <g id="Public/ic_public_detail_filled">
                <mask id="mask-4" fill="white">
                    <use xlink:href="#path-3"></use>
                </mask>
                <use id="Combined-Shape" fill-opacity="0.05" fill="#000000" xlink:href="#path-3"></use>
            </g>
        </g>
    </g>
</svg>