<?xml version="1.0" encoding="UTF-8"?>
<svg width="32px" height="32px" viewBox="0 0 32 32" version="1.1" xmlns="http://www.w3.org/2000/svg" xmlns:xlink="http://www.w3.org/1999/xlink">
    <title>Public/ic_tip</title>
    <defs>
        <path d="M15,30 C23.2842712,30 30,23.2842712 30,15 C30,6.71572875 23.2842712,0 15,0 C6.71572875,0 0,6.71572875 0,15 C0,23.2842712 6.71572875,30 15,30 Z M15,19.7727273 C15.9413352,19.7727273 16.7045455,20.5359375 16.7045455,21.4772727 C16.7045455,22.418608 15.9413352,23.1818182 15,23.1818182 C14.0586648,23.1818182 13.2954545,22.418608 13.2954545,21.4772727 C13.2954545,20.5359375 14.0586648,19.7727273 15,19.7727273 Z M15,6.81818182 C15.8747157,6.81818182 16.5838129,7.527279 16.5838129,8.40199471 C16.5838129,8.44074827 16.5823905,8.47948878 16.5795487,8.518138 L15.9147711,17.5591128 C15.8795367,18.0383014 15.4804822,18.4090909 15,18.4090909 C14.5195178,18.4090909 14.1204633,18.0383014 14.0852289,17.5591128 L13.4204513,8.518138 C13.3563072,7.64577735 14.0114961,6.8865902 14.8838567,6.82244604 C14.9225059,6.81960418 14.9612464,6.81818182 15,6.81818182 Z" id="path-1"></path>
    </defs>
    <g id="Public/ic_tip" stroke="none" stroke-width="1" fill="none" fill-rule="evenodd">
        <g id="编组-2">
            <rect id="矩形" x="0" y="0" width="32" height="32"></rect>
            <g id="Public/ic_tips_filled" transform="translate(1.000000, 1.000000)">
                <g id="tips">
                    <mask id="mask-2" fill="white">
                        <use xlink:href="#path-1"></use>
                    </mask>
                    <use id="Combined-Shape" fill="#ED6F21" xlink:href="#path-1"></use>
                </g>
            </g>
        </g>
    </g>
</svg>