<?xml version="1.0" encoding="UTF-8"?>
<svg width="64px" height="64px" viewBox="0 0 64 64" version="1.1" xmlns="http://www.w3.org/2000/svg" xmlns:xlink="http://www.w3.org/1999/xlink">
    <title>logo</title>
    <defs>
        <linearGradient x1="50%" y1="0%" x2="50%" y2="99.8733108%" id="linearGradient-1">
            <stop stop-color="#3BA3FF" offset="0%"></stop>
            <stop stop-color="#3480F6" offset="100%"></stop>
        </linearGradient>
    </defs>
    <g id="logo" stroke="none" stroke-width="1" fill="none" fill-rule="evenodd">
        <g id="编组-2备份">
            <rect id="矩形" x="0" y="0" width="64" height="64"></rect>
            <g id="编组">
                <rect id="矩形" fill="url(#linearGradient-1)" x="0" y="0" width="64" height="64" rx="16"></rect>
                <g id="1" transform="translate(9.779683, 10.451746)" fill="#FFFFFF">
                    <path d="M13.8362173,0.040147552 L30.3809256,0.040147552 C33.4267222,0.040147552 35.8958283,2.50925362 35.8958283,5.5550503 L35.8958283,9.69122736 L35.8958283,9.69122736 L8.32131455,9.69122736 L8.32131455,5.5550503 C8.32131455,2.50925362 10.7904206,0.040147552 13.8362173,0.040147552 Z" id="矩形" fill-opacity="0.6"></path>
                    <path d="M38.6532797,9.69122736 C41.6990764,9.69122736 44.1681824,12.1603334 44.1681824,15.2061301 L44.1681824,31.7508384 C44.1681824,34.796635 41.6990764,37.2657411 38.6532797,37.2657411 L36.5849604,37.2652274 L36.5851911,29.6827498 C36.5851911,26.7094721 34.2322618,24.2857505 31.286839,24.1720207 L31.0702884,24.1678471 L13.1468545,24.1678471 C10.1010578,24.1678471 7.63195171,26.6369531 7.63195171,29.6827498 L7.63195171,29.6827498 L7.63096043,37.2652274 L5.56386318,37.2657411 C2.51806649,37.2657411 0.0489604292,34.796635 0.0489604292,31.7508384 L0.0489604292,15.2061301 C0.0489604292,12.1603334 2.51806649,9.69122736 5.56386318,9.69122736 L38.6532797,9.69122736 Z M36.5851911,14.5167673 C35.0622928,14.5167673 33.8277398,15.7513203 33.8277398,17.2742186 C33.8277398,18.797117 35.0622928,20.03167 36.5851911,20.03167 C38.1080895,20.03167 39.3426425,18.797117 39.3426425,17.2742186 C39.3426425,15.7513203 38.1080895,14.5167673 36.5851911,14.5167673 Z" id="形状结合"></path>
                    <rect id="形状结合" fill-opacity="0.6" x="9.70004024" y="26.2359356" width="24.8170624" height="16.5447082" rx="3.44681422"></rect>
                </g>
            </g>
        </g>
    </g>
</svg>